<svg width="18" height="18" viewBox="0 0 18 18" fill="none" xmlns="http://www.w3.org/2000/svg">
<path fill-rule="evenodd" clip-rule="evenodd" d="M17.15 9.44883C17.15 8.82838 17.0943 8.23178 16.9909 7.65906H8.75V11.0437H13.4591C13.2562 12.1375 12.6398 13.0642 11.7131 13.6846V15.8801H14.5409C16.1955 14.3568 17.15 12.1136 17.15 9.44883Z" fill="#4285F4"/>
<path fill-rule="evenodd" clip-rule="evenodd" d="M8.74998 17.9999C11.1125 17.9999 13.0932 17.2163 14.5409 15.88L11.7131 13.6845C10.9295 14.2095 9.92725 14.5197 8.74998 14.5197C6.471 14.5197 4.54203 12.9805 3.85396 10.9124H0.930664V13.1794C2.37044 16.0391 5.32953 17.9999 8.74998 17.9999Z" fill="#34A853"/>
<path fill-rule="evenodd" clip-rule="evenodd" d="M3.85398 10.9126C3.67898 10.3876 3.57955 9.82681 3.57955 9.2501C3.57955 8.6734 3.67898 8.1126 3.85398 7.5876V5.32056H0.930682C0.338068 6.50181 0 7.83817 0 9.2501C0 10.662 0.338068 11.9984 0.930682 13.1796L3.85398 10.9126Z" fill="#FBBC05"/>
<path fill-rule="evenodd" clip-rule="evenodd" d="M8.74998 3.98011C10.0346 3.98011 11.1881 4.42159 12.0949 5.28864L14.6045 2.77898C13.0892 1.36705 11.1085 0.5 8.74998 0.5C5.32953 0.5 2.37044 2.4608 0.930664 5.32045L3.85396 7.5875C4.54203 5.51932 6.47101 3.98011 8.74998 3.98011Z" fill="#EA4335"/>
</svg>
