<svg width="22" height="22" viewBox="0 0 22 22" fill="none" xmlns="http://www.w3.org/2000/svg">
<path d="M10.9807 9.56104C11.3573 9.56104 11.7184 9.71061 11.9846 9.97686C12.2509 10.2431 12.4005 10.6042 12.4005 10.9807C12.4005 11.3573 12.2509 11.7184 11.9846 11.9846C11.7184 12.2509 11.3573 12.4005 10.9807 12.4005C10.6042 12.4005 10.2431 12.2509 9.97686 11.9846C9.71061 11.7184 9.56104 11.3573 9.56104 10.9807C9.56104 10.6042 9.71061 10.2431 9.97686 9.97686C10.2431 9.71061 10.6042 9.56104 10.9807 9.56104Z"/>
<path d="M0.415931 12.0519C-0.138644 11.4973 -0.138644 10.5967 0.415931 10.0421L3.25535 7.20268C3.66352 6.79451 4.27133 6.67472 4.80373 6.89655C5.33612 7.11838 5.68218 7.63303 5.68218 8.20978V9.62949H7.10189C7.88716 9.62949 8.5216 10.2639 8.5216 11.0492C8.5216 11.8345 7.88716 12.4689 7.10189 12.4689H5.68218V13.8886C5.68218 14.461 5.33612 14.98 4.80373 15.2019C4.27133 15.4237 3.66352 15.2995 3.25535 14.8957L0.415931 12.0563V12.0519Z"/>
<path d="M12.0519 21.5841C11.4973 22.1386 10.5967 22.1386 10.0421 21.5841L7.20268 18.7446C6.79451 18.3365 6.67472 17.7287 6.89655 17.1963C7.11838 16.6639 7.63303 16.3178 8.20978 16.3178H9.62949V14.8981C9.62949 14.1128 10.2639 13.4784 11.0492 13.4784C11.8345 13.4784 12.4689 14.1128 12.4689 14.8981V16.3178H13.8886C14.461 16.3178 14.98 16.6639 15.2019 17.1963C15.4237 17.7287 15.2995 18.3365 14.8957 18.7446L12.0563 21.5841H12.0519Z"/>
<path d="M10.0453 0.415931C10.5999 -0.138644 11.5005 -0.138644 12.0551 0.415931L14.8945 3.25535C15.3027 3.66352 15.4224 4.27133 15.2006 4.80373C14.9788 5.33612 14.4641 5.68218 13.8874 5.68218H12.4677V7.10189C12.4677 7.88716 11.8332 8.5216 11.048 8.5216C10.2627 8.5216 9.62825 7.88716 9.62825 7.10189V5.68218H8.20854C7.63622 5.68218 7.11714 5.33612 6.89531 4.80373C6.67348 4.27133 6.7977 3.66352 7.20143 3.25535L10.0409 0.415931H10.0453Z" />
<path d="M21.5841 10.0453C22.1386 10.5999 22.1386 11.5005 21.5841 12.0551L18.7446 14.8945C18.3365 15.3027 17.7287 15.4224 17.1963 15.2006C16.6639 14.9788 16.3178 14.4641 16.3178 13.8874V12.4677H14.8981C14.1128 12.4677 13.4784 11.8332 13.4784 11.048C13.4784 10.2627 14.1128 9.62825 14.8981 9.62825L16.3178 9.62825V8.20854C16.3178 7.63622 16.6639 7.11714 17.1963 6.89531C17.7287 6.67348 18.3365 6.7977 18.7446 7.20143L21.5841 10.0409V10.0453Z" />
</svg>
