<svg width="25" height="28" viewBox="0 0 25 28" fill="none" xmlns="http://www.w3.org/2000/svg">
<path fill-rule="evenodd" clip-rule="evenodd" d="M11.2649 6.5412C12.3125 7.21478 14.8931 10.8806 16.2777 10.3301C17.1217 9.99455 15.6302 7.06512 14.5511 5.43578C14.8283 4.74581 17.9781 4.9115 18.9134 4.89824C22.559 7.07002 25 11.0368 25 15.5695C25 22.4336 19.4022 27.9998 12.5002 27.9998C5.59756 27.9998 0 22.4336 0 15.5695C0 11.612 1.86065 8.08613 4.75914 5.80937C5.40665 5.64752 5.5566 6.14947 8.28777 5.42915C6.99215 6.00645 5.81907 8.72764 6.34905 10.2433C7.98964 10.666 10.0783 6.60014 11.2649 6.5412ZM5.28884 5.34857C7.85386 3.74084 7.97669 3.66934 10.4236 3.35818C10.9633 3.28981 11.7475 1.83138 11.5292 0.322722C11.6853 0.183541 11.9619 -0.0766815 12.2833 0.0216858C12.7962 0.178656 13.0776 2.06265 12.9088 3.20749C14.8065 3.06935 17.723 3.7963 18.0582 4.40814C16.3561 4.13152 14.0577 4.50093 13.997 5.16334C13.8105 7.19943 15.4031 7.31419 15.9899 9.65097C14.2365 8.91251 12.2919 6.76027 11.4049 5.76857C10.4024 5.73717 8.89787 7.41467 6.80185 9.52435C6.80185 7.48443 9.16037 5.4644 8.91731 4.92301C8.76147 4.57628 6.48665 5.41171 5.28884 5.34857Z" />
</svg>
